<svg
  width="32"
  height="32"
  viewBox="0 0 64 64"
  xmlns="http://www.w3.org/2000/svg"
>
  <defs>
    <radialGradient id="eternalBalanceCore" cx="50%" cy="50%" r="50%">
      <stop offset="0%" stop-color="#00ffe5" />
      <stop offset="100%" stop-color="#0066ff" />
    </radialGradient>
    <linearGradient id="eternalBalanceArc" x1="0%" y1="0%" x2="100%" y2="100%">
      <stop offset="0%" stop-color="#a6e3e9" />
      <stop offset="100%" stop-color="#4db6ac" />
    </linearGradient>
    <radialGradient id="pulseGlow" cx="50%" cy="50%" r="80%">
      <stop offset="0%" stop-color="#ffffff" stop-opacity="0.9" />
      <stop offset="60%" stop-color="#00ffe5" stop-opacity="0.15" />
      <stop offset="100%" stop-color="#00ffe5" stop-opacity="0" />
    </radialGradient>
  </defs>
  <path
    d="M32 6 A26 26 0 0 1 32 58"
    stroke="url(#eternalBalanceArc)"
    stroke-width="4"
    fill="none"
  >
    <animateTransform
      attributeName="transform"
      type="rotate"
      values="0 32 32; 360 32 32"
      dur="28s"
      repeatCount="indefinite"
      calcMode="spline"
      keySplines="0.42 0 0.58 1"
    />
  </path>
  <path
    d="M32 6 A26 26 0 0 0 32 58"
    stroke="url(#eternalBalanceArc)"
    stroke-width="4"
    fill="none"
  >
    <animateTransform
      attributeName="transform"
      type="rotate"
      values="360 32 32; 0 32 32"
      dur="28s"
      repeatCount="indefinite"
      calcMode="spline"
      keySplines="0.42 0 0.58 1"
    />
  </path>
  <path
    d="M32 32
       m 0,-1
       a1,1 0 0,1 1,1
       a2,2 0 0,1 -2,2
       a3,3 0 0,1 3,3
       a5,5 0 0,1 -5,5
       a8,8 0 0,1 8,8"
    fill="none"
    stroke="#00ffe5"
    stroke-width="1.5"
    opacity="0.4"
  >
    <animateTransform
      attributeName="transform"
      type="rotate"
      values="0 32 32; 360 32 32"
      dur="38.18s"
      repeatCount="indefinite"
      calcMode="spline"
      keySplines="0.42 0 0.58 1"
    />
  </path>
  <circle
    cx="32"
    cy="32"
    r="6"
    fill="url(#eternalBalanceCore)"
    opacity="0.95"
  >
    <animate
      attributeName="r"
      values="6;6.8;6.2;6"
      dur="5.236s"
      repeatCount="indefinite"
    />
  </circle>
  <circle
    cx="32"
    cy="32"
    r="12"
    stroke="url(#pulseGlow)"
    stroke-width="3"
    fill="none"
  >
    <animate
      attributeName="r"
      values="12;13.6;12.4;12"
      dur="7.236s"
      repeatCount="indefinite"
    />
    <animate
      attributeName="stroke-opacity"
      values="0.2;0.4;0.2"
      dur="7.236s"
      repeatCount="indefinite"
    />
  </circle>
</svg>
