<!-- /assets/cheers.svg -->
<svg xmlns="http://www.w3.org/2000/svg" viewBox="0 0 64 64" fill="none" stroke="currentColor" stroke-width="2" stroke-linecap="round" stroke-linejoin="round">
  <!-- Glass 1 -->
  <g>
    <path d="M16 2l10 40a6 6 0 0 1-6 6h-8a6 6 0 0 1-6-6l10-40">
      <animateTransform attributeName="transform" type="rotate" values="0 16 32; 10 16 32; 0 16 32" dur="2s" repeatCount="indefinite" />
    </path>
    <path d="M8 22h16" />
    <path d="M6 32h20" />
  </g>

  <!-- Glass 2 (tilted) -->
  <g>
    <path d="M48 2l-10 40a6 6 0 0 0 6 6h8a6 6 0 0 0 6-6l-10-40">
      <animateTransform attributeName="transform" type="rotate" values="0 48 32; -10 48 32; 0 48 32" dur="2s" repeatCount="indefinite" />
    </path>
    <path d="M40 22h16" />
    <path d="M38 32h20" />
  </g>

  <!-- Clink stars -->
  <line x1="32" y1="10" x2="32" y2="2">
    <animate attributeName="opacity" values="1;0;1" dur="2s" repeatCount="indefinite" />
  </line>
  <line x1="26" y1="6" x2="24" y2="0">
    <animate attributeName="opacity" values="1;0;1" dur="2s" repeatCount="indefinite" />
  </line>
  <line x1="38" y1="6" x2="40" y2="0">
    <animate attributeName="opacity" values="1;0;1" dur="2s" repeatCount="indefinite" />
  </line>
</svg>
