<?xml version="1.0" encoding="UTF-8"?>
<svg width="128" height="128" viewBox="0 0 128 128" fill="none" xmlns="http://www.w3.org/2000/svg" role="img" aria-label="Investment glyph">
  <!--
    INVESTOR PORTAL ICON
    Visual cues (no text):
    • Gold coin/ring  → value
    • Spiral           → compounding / time
    • Upward arrow     → growth
    • Sprout tip       → regenerative/organic gains
    • Soft aura        → focus & importance
  -->

  <!-- ====== DEFINITIONS ====== -->
  <defs>
    <!-- Golden coin gradient -->
    <radialGradient id="g-gold" cx="0" cy="0" r="1" gradientUnits="userSpaceOnUse"
      gradientTransform="translate(64 64) rotate(90) scale(46)">
      <stop offset="0" stop-color="#FFE9A6"/>
      <stop offset="0.55" stop-color="#FFC73A"/>
      <stop offset="0.9" stop-color="#FFB300"/>
      <stop offset="1" stop-color="#F89500"/>
    </radialGradient>

    <!-- Soft aura backdrop -->
    <radialGradient id="g-aura" cx="0" cy="0" r="1" gradientUnits="userSpaceOnUse"
      gradientTransform="translate(64 64) rotate(90) scale(60)">
      <stop offset="0" stop-color="#FFF6D1" stop-opacity="0.85"/>
      <stop offset="0.45" stop-color="#FFE07A" stop-opacity="0.35"/>
      <stop offset="1" stop-color="#FFD24A" stop-opacity="0"/>
    </radialGradient>

    <!-- Emerald growth gradient -->
    <linearGradient id="g-growth" x1="64" y1="96" x2="64" y2="24" gradientUnits="userSpaceOnUse">
      <stop offset="0" stop-color="#0FD976"/>
      <stop offset="1" stop-color="#46E0C1"/>
    </linearGradient>

    <!-- Spiral stroke gradient -->
    <linearGradient id="g-spiral" x1="24" y1="104" x2="104" y2="24" gradientUnits="userSpaceOnUse">
      <stop offset="0" stop-color="#46E0C1" stop-opacity="0.0"/>
      <stop offset="0.3" stop-color="#46E0C1" stop-opacity="0.3"/>
      <stop offset="0.6" stop-color="#5AF2D2" stop-opacity="0.85"/>
      <stop offset="1" stop-color="#B7FFF5" stop-opacity="1"/>
    </linearGradient>

    <!-- Glow filter -->
    <filter id="f-glow" x="-40%" y="-40%" width="180%" height="180%" color-interpolation-filters="sRGB">
      <feGaussianBlur stdDeviation="2" result="b"/>
      <feColorMatrix in="b" type="matrix"
        values="0 0 0 0 1
                0 0 0 0 0.85
                0 0 0 0 0.25
                0 0 0 0.7 0" result="c"/>
      <feMerge>
        <feMergeNode in="c"/>
        <feMergeNode in="SourceGraphic"/>
      </feMerge>
    </filter>

    <!-- Subtle inner shadow for coin -->
    <filter id="f-inner" x="-30%" y="-30%" width="160%" height="160%" color-interpolation-filters="sRGB">
      <feOffset dx="0" dy="1" />
      <feGaussianBlur stdDeviation="1.2" result="o"/>
      <feComposite in="SourceGraphic" in2="o" operator="arithmetic" k2="1" k3="-1"/>
    </filter>

    <!-- Sparkle shape -->
    <symbol id="spark" viewBox="0 0 20 20">
      <path d="M10 0 L11.5 6.5 L18 10 L11.5 13.5 L10 20 L8.5 13.5 L2 10 L8.5 6.5 Z"
            fill="white" fill-opacity="0.9"/>
    </symbol>
  </defs>

  <!-- ====== AURA ====== -->
  <circle cx="64" cy="64" r="60" fill="url(#g-aura)">
    <animate attributeName="r" values="58;60;58" dur="3.236s" repeatCount="indefinite" />
    <animate attributeName="opacity" values="0.9;1;0.9" dur="3.236s" repeatCount="indefinite" />
  </circle>

  <!-- ====== GOLD COIN RING ====== -->
  <g transform="translate(64 64)">
    <!-- outer coin body -->
    <circle r="46" fill="url(#g-gold)" filter="url(#f-inner)">
      <animateTransform attributeName="transform" type="rotate" from="0" to="360"
        dur="9.708s" repeatCount="indefinite"/>
    </circle>

    <!-- coin rim -->
    <circle r="46" fill="none" stroke="rgba(255,255,255,0.65)" stroke-width="1.2"/>

    <!-- inner rim -->
    <circle r="36.5" fill="none" stroke="rgba(255,255,255,0.35)" stroke-width="1.2"/>

    <!-- tick marks (value notches) -->
    <g opacity="0.55">
      <g>
        <!-- 24 ticks -->
        <g>
          <rect x="-0.7" y="-47.5" width="1.4" height="5.5" rx="0.7" fill="white" opacity="0.9"/>
        </g>
        <use href="#tick" />
      </g>
      <defs>
        <g id="tick">
          <!-- placeholder for mapping via rotate -->
        </g>
      </defs>
      <!-- draw 24 rotated tick clones -->
      <g>
        <g transform="rotate(15)"><rect x="-0.7" y="-47.5" width="1.4" height="5.5" rx="0.7" fill="white" opacity="0.7"/></g>
        <g transform="rotate(30)"><rect x="-0.7" y="-47.5" width="1.4" height="5.5" rx="0.7" fill="white" opacity="0.55"/></g>
        <g transform="rotate(45)"><rect x="-0.7" y="-47.5" width="1.4" height="5.5" rx="0.7" fill="white" opacity="0.55"/></g>
        <g transform="rotate(60)"><rect x="-0.7" y="-47.5" width="1.4" height="5.5" rx="0.7" fill="white" opacity="0.55"/></g>
        <g transform="rotate(75)"><rect x="-0.7" y="-47.5" width="1.4" height="5.5" rx="0.7" fill="white" opacity="0.55"/></g>
        <g transform="rotate(90)"><rect x="-0.7" y="-47.5" width="1.4" height="5.5" rx="0.7" fill="white" opacity="0.55"/></g>
        <g transform="rotate(105)"><rect x="-0.7" y="-47.5" width="1.4" height="5.5" rx="0.7" fill="white" opacity="0.55"/></g>
        <g transform="rotate(120)"><rect x="-0.7" y="-47.5" width="1.4" height="5.5" rx="0.7" fill="white" opacity="0.55"/></g>
        <g transform="rotate(135)"><rect x="-0.7" y="-47.5" width="1.4" height="5.5" rx="0.7" fill="white" opacity="0.55"/></g>
        <g transform="rotate(150)"><rect x="-0.7" y="-47.5" width="1.4" height="5.5" rx="0.7" fill="white" opacity="0.55"/></g>
        <g transform="rotate(165)"><rect x="-0.7" y="-47.5" width="1.4" height="5.5" rx="0.7" fill="white" opacity="0.55"/></g>
        <g transform="rotate(180)"><rect x="-0.7" y="-47.5" width="1.4" height="5.5" rx="0.7" fill="white" opacity="0.55"/></g>
        <g transform="rotate(195)"><rect x="-0.7" y="-47.5" width="1.4" height="5.5" rx="0.7" fill="white" opacity="0.55"/></g>
        <g transform="rotate(210)"><rect x="-0.7" y="-47.5" width="1.4" height="5.5" rx="0.7" fill="white" opacity="0.55"/></g>
        <g transform="rotate(225)"><rect x="-0.7" y="-47.5" width="1.4" height="5.5" rx="0.7" fill="white" opacity="0.55"/></g>
        <g transform="rotate(240)"><rect x="-0.7" y="-47.5" width="1.4" height="5.5" rx="0.7" fill="white" opacity="0.55"/></g>
        <g transform="rotate(255)"><rect x="-0.7" y="-47.5" width="1.4" height="5.5" rx="0.7" fill="white" opacity="0.55"/></g>
        <g transform="rotate(270)"><rect x="-0.7" y="-47.5" width="1.4" height="5.5" rx="0.7" fill="white" opacity="0.55"/></g>
        <g transform="rotate(285)"><rect x="-0.7" y="-47.5" width="1.4" height="5.5" rx="0.7" fill="white" opacity="0.55"/></g>
        <g transform="rotate(300)"><rect x="-0.7" y="-47.5" width="1.4" height="5.5" rx="0.7" fill="white" opacity="0.55"/></g>
        <g transform="rotate(315)"><rect x="-0.7" y="-47.5" width="1.4" height="5.5" rx="0.7" fill="white" opacity="0.55"/></g>
        <g transform="rotate(330)"><rect x="-0.7" y="-47.5" width="1.4" height="5.5" rx="0.7" fill="white" opacity="0.55"/></g>
        <g transform="rotate(345)"><rect x="-0.7" y="-47.5" width="1.4" height="5.5" rx="0.7" fill="white" opacity="0.7"/></g>
      </g>
    </g>
  </g>

  <!-- ====== COMPOUNDING SPIRAL ====== -->
  <!-- Log-style spiral approximation via expanding arcs -->
  <g transform="translate(64 64)">
    <path d="M12 0
             A12 12 0 0 1 0 12
             A24 24 0 0 1 -20 15
             A36 36 0 0 1 -28 0
             A48 48 0 0 1 -10 -38
             A60 60 0 0 1 18 -52"
          fill="none" stroke="url(#g-spiral)" stroke-width="3" stroke-linecap="round"
          filter="url(#f-glow)">
      <animate attributeName="stroke-dasharray" values="0,400; 260,400; 0,400"
               dur="5.618s" repeatCount="indefinite"/>
      <animate attributeName="opacity" values="0.35;1;0.35" dur="5.618s" repeatCount="indefinite"/>
    </path>
  </g>

  <!-- ====== GROWTH ARROW / SPROUT ====== -->
  <g transform="translate(64 78)">
    <!-- stem -->
    <path d="M0 18 C -0.5 6, -0.5 -6, 0 -18" stroke="url(#g-growth)" stroke-width="4" fill="none" stroke-linecap="round">
      <animate attributeName="d"
               values="M0 18 C -0.5 6, -0.5 -6, 0 -18;
                       M0 18 C -0.5 5, -0.5 -8, 0 -20;
                       M0 18 C -0.5 6, -0.5 -6, 0 -18"
               dur="3.236s" repeatCount="indefinite"/>
    </path>

    <!-- left leaf -->
    <path d="M0 -10 C -10 -14, -16 -8, -12 -2 C -6 -4, -2 -7, 0 -10Z" fill="url(#g-growth)" opacity="0.9">
      <animateTransform attributeName="transform" type="rotate"
                        values="-6 0 -10; 6 0 -10; -6 0 -10" dur="3.236s" repeatCount="indefinite"/>
    </path>

    <!-- right leaf (arrowhead-esque) -->
    <path d="M0 -18 L10 -10 L0 -2 Z" fill="url(#g-growth)">
      <animateTransform attributeName="transform" type="translate"
                        values="0 0; 0 -2; 0 0" dur="1.618s" repeatCount="indefinite"/>
    </path>
  </g>

  <!-- ====== SPARKLES ====== -->
  <g opacity="0.9">
    <use href="#spark" x="90" y="22" width="10" height="10" opacity="0.85">
      <animateTransform attributeName="transform" type="scale" values="0.8 0.8; 1.1 1.1; 0.8 0.8" dur="2.4s" repeatCount="indefinite"/>
      <animate attributeName="opacity" values="0.3;0.9;0.3" dur="2.4s" repeatCount="indefinite"/>
    </use>
    <use href="#spark" x="22" y="94" width="8" height="8" opacity="0.7">
      <animateTransform attributeName="transform" type="scale" values="0.7 0.7; 1 1; 0.7 0.7" dur="2.1s" repeatCount="indefinite"/>
      <animate attributeName="opacity" values="0.25;0.8;0.25" dur="2.1s" repeatCount="indefinite"/>
    </use>
    <use href="#spark" x="100" y="80" width="7" height="7" opacity="0.7">
      <animateTransform attributeName="transform" type="scale" values="0.6 0.6; 1 1; 0.6 0.6" dur="2.8s" repeatCount="indefinite"/>
      <animate attributeName="opacity" values="0.2;0.7;0.2" dur="2.8s" repeatCount="indefinite"/>
    </use>
  </g>
</svg>
